<?xml version="1.0" encoding="UTF-8" standalone="no"?>
<!-- Created with Inkscape (http://www.inkscape.org/) -->

<svg
   width="130mm"
   height="65mm"
   viewBox="0 0 130 65"
   version="1.1"
   id="svg215"
   inkscape:version="1.2 (dc2aedaf03, 2022-05-15)"
   sodipodi:docname="protegernosWebColor.svg"
   xmlns:inkscape="http://www.inkscape.org/namespaces/inkscape"
   xmlns:sodipodi="http://sodipodi.sourceforge.net/DTD/sodipodi-0.dtd"
   xmlns="http://www.w3.org/2000/svg"
   xmlns:svg="http://www.w3.org/2000/svg"
   xmlns:rdf="http://www.w3.org/1999/02/22-rdf-syntax-ns#"
   xmlns:cc="http://creativecommons.org/ns#"
   xmlns:dc="http://purl.org/dc/elements/1.1/">
  <defs
     id="defs209" />
  <sodipodi:namedview
     id="base"
     pagecolor="#ffffff"
     bordercolor="#666666"
     borderopacity="1.0"
     inkscape:pageopacity="0.0"
     inkscape:pageshadow="2"
     inkscape:zoom="0.9328815"
     inkscape:cx="540.26154"
     inkscape:cy="128.09773"
     inkscape:document-units="mm"
     inkscape:current-layer="layer1"
     showgrid="false"
     inkscape:window-width="1366"
     inkscape:window-height="703"
     inkscape:window-x="0"
     inkscape:window-y="0"
     inkscape:window-maximized="1"
     inkscape:showpageshadow="0"
     inkscape:pagecheckerboard="0"
     inkscape:deskcolor="#d1d1d1" />
  <metadata
     id="metadata212">
    <rdf:RDF>
      <cc:Work
         rdf:about="">
        <dc:format>image/svg+xml</dc:format>
        <dc:type
           rdf:resource="http://purl.org/dc/dcmitype/StillImage" />
      </cc:Work>
    </rdf:RDF>
  </metadata>
  <g
     inkscape:label="Capa 1"
     inkscape:groupmode="layer"
     id="layer1">
    <text
       y="57.923756"
       x="6.1648688"
       style="font-variant:normal;font-weight:bold;font-size:6.74546px;font-family:Calibri;-inkscape-font-specification:Calibri-Bold;writing-mode:lr-tb;fill:#000000;fill-opacity:1;fill-rule:nonzero;stroke:none;stroke-width:0.352778"
       id="text22"><tspan
         style="fill:#000000;stroke-width:0.352778"
         x="6.1648688 10.815472 15.568371 20.74638 26.197567 29.458569 34.491589 37.75259 42.312527 45.301571 48.562588 54.467968 59.270382 63.924458 69.684753 74.944756 80.494759 83.348076 86.33387 92.048164 95.339943 98.325661 102.89429 108.44429 112.59454 118.46056"
         y="57.923756"
         sodipodi:role="line"
         id="tspan20">SERVICIO INTEGRAL DE SALUD</tspan></text>
    <path
       inkscape:connector-curvature="0"
       id="path26"
       style="fill:#000000;fill-opacity:1;fill-rule:nonzero;stroke:none;stroke-width:0.352778"
       d="m 122.34497,49.815616 c -1.5507,-0.87503 -3.4526,-1.1678 -5.1883,-1.45041 -25.961601,-4.2272 -46.845121,-5.1102 -72.463916,0.0829 -0.2577,0.0521 -0.23357,0.45699 0.0376,0.41638 22.955605,-2.55789 48.518585,-3.26838 71.577526,0.26451 1.98017,0.30339 3.92497,0.8225 5.90119,1.11919 0.26328,0.0395 0.35709,-0.3078 0.13589,-0.43258" />
    <path
       inkscape:connector-curvature="0"
       id="path28"
       style="fill:#000000;fill-opacity:1;fill-rule:nonzero;stroke:none;stroke-width:0.352778"
       d="m 88.987249,23.934816 c -0.0709,-0.014 -0.14168,-0.0289 -0.21238,-0.0443 -0.0877,-0.006 -0.1749,-0.0129 -0.26151,-0.0225 0.008,-0.01 0.0138,-0.0198 0.0187,-0.0308 -0.15801,-0.0342 -0.31358,-0.0658 -0.46471,-0.0859 -0.68249,-0.091 -1.3419,-0.1959 -1.98787,-0.43529 -0.31083,-0.0478 -0.62872,-0.0824 -0.9271,-0.0601 -0.47893,0.0355 -0.97592,0.27171 -1.42843,0.42471 -0.3211,0.10858 -0.63148,0.23068 -0.93719,0.36629 0.9695,-1.25628 1.42402,-2.86459 2.02,-4.31599 0.0429,-0.10421 -0.0467,-0.19509 -0.1307,-0.18419 -0.0601,-0.0625 -0.16771,-0.0726 -0.21749,0.0323 -0.35119,0.7414 -0.75092,1.47112 -1.14709,2.18941 -1.5113,2.74218 -2.69311,3.43768 -5.5808,4.72729 -0.91751,0.40972 -5.32783,2.0283 -5.74033,2.69262 -0.3289,0.52959 -0.56367,1.1461 -0.83337,1.72279 -0.0457,-0.23259 -0.11603,-0.46352 -0.15931,-0.69699 -0.54201,-2.91292 1.29098,-5.79092 2.7899,-8.2333 0.45378,0.14527 0.90248,0.30928 1.36201,0.43938 0.4463,0.12651 0.90099,0.34541 1.37079,0.36231 0.45988,0.0164 0.86818,-0.1911 1.28058,-0.36312 0.51611,-0.21519 1.062,-0.33369 1.58253,-0.53019 0.0324,-0.008 0.0647,-0.0166 0.097,-0.0241 0.17272,-0.0405 0.10389,-0.31259 -0.0654,-0.2976 -1.0885,0.0969 -2.10379,0.70079 -3.22958,0.58752 -0.40721,-0.0411 -0.78772,-0.20613 -1.18512,-0.2927 -0.1124,-0.0245 -0.22567,-0.0436 -0.33909,-0.062 -0.21438,-0.0589 -0.43039,-0.10559 -0.6483,-0.12909 -0.003,-7.1e-4 -0.006,-10e-4 -0.008,-0.002 0.11511,-0.14432 0.2468,-0.2806 0.404,-0.40629 3.41341,-2.72521 7.8032,-2.85341 8.56929,-3.48612 0.47879,-0.39549 0.8981,-0.87478 1.34712,-1.30418 0.49498,-0.47332 1.14018,-0.8515 1.50668,-1.4454 0.0334,-0.0544 0.0308,-0.10841 0.008,-0.14961 0.01,-0.0133 0.0201,-0.0264 0.0295,-0.04 0.0811,-0.11871 -0.0834,-0.243 -0.17721,-0.1348 -0.37129,0.42961 -0.80359,0.7149 -1.2289,1.0795 -0.4319,0.3702 -0.84239,0.76189 -1.2815,1.12621 -0.43801,0.36318 -3.5791,1.68441 -2.20288,-0.39441 0.17409,-0.2631 0.2667,-0.57129 0.4421,-0.83008 0.0601,-0.0887 -0.005,-0.23711 -0.1076,-0.23513 -0.0566,-0.0533 -0.1416,-0.0681 -0.2027,0.0113 -0.7468,0.97028 -1.28391,2.00519 -1.33269,0.53449 -0.0247,-0.74679 -0.0163,-1.4201 0.23759,-2.1301 0.20729,-0.57951 0.4028,-1.1678 0.63938,-1.73592 0.2638,-0.633871 0.58833,-1.204171 0.80609,-1.861782 0.0403,-0.12161 -0.0972,-0.25661 -0.21046,-0.16239 -0.46803,0.3888 -0.75721,1.008811 -1.0638,1.524291 -0.1693,0.28462 -0.29531,0.589591 -0.42503,0.893411 -0.14189,0.33249 -0.33659,0.62247 -0.4983,0.94241 -0.14107,0.27908 -0.14101,0.46697 -0.13741,0.77067 0.006,0.47251 -0.0942,0.9506 -0.17318,1.41461 -0.6713,3.94141 -1.5864,2.57249 -4.96601,5.10998 -2.12828,1.59812 -3.55918,7.07013 -3.5722,6.88171 -0.16058,-2.3459 0.5309,-4.69999 1.61029,-6.76769 0.33793,-0.6472 0.69381,-1.29632 1.07622,-1.9184 0.34978,-0.56921 0.82741,-1.00761 1.29322,-1.47959 0.46577,-0.47212 0.88508,-0.92512 1.24019,-1.48632 0.057,-0.0902 0.1162,-0.1778 0.17289,-0.26508 0.2141,-0.42492 0.31341,-0.77481 0.0881,-0.83809 -0.1386,-0.13441 -0.23608,-0.0915 -0.29259,0.12858 -0.0537,0.0907 -0.10509,0.1825 -0.15441,0.27559 -0.0784,0.13681 -0.14739,0.25432 -0.24698,0.37801 -0.1771,0.21999 -0.3852,0.41948 -0.63303,0.55449 -0.0714,0.0724 -0.14478,0.14372 -0.22179,0.21361 -0.077,0.07 -0.15617,0.1379 -0.23618,0.20489 0.0224,-0.18178 0.0515,-0.3623 0.0772,-0.5492 0.0982,-0.71078 0.18249,-1.40131 0.18849,-2.11917 0.15942,-0.81132 0.25082,-1.61894 0.0821,-2.447821 -0.18271,-0.89772 -0.52592,-1.8875106 -1.08239,-2.6228006 -0.0352,-0.0466 -0.10612,-0.0385 -0.14203,-10e-4 -0.0595,0.0159 -0.10548,0.0687 -0.0809,0.1464 0.21039,0.6621 0.30211,1.3624996 0.48821,2.0321806 0.0999,0.35973 0.23188,0.6664 0.22069,1.048211 -0.0107,0.36421 -0.0426,0.71949 -0.0374,1.08549 0.007,0.4886 -0.0204,0.97872 -0.0518,1.46781 -0.12199,0.68749 -0.2661,1.37139 -0.35658,2.06399 -0.3385,-0.1639 -0.6772,-0.31418 -0.96189,-0.58998 -0.40873,-0.39561 -0.95183,-0.57521 -1.3735,-0.9585 -0.41702,-0.3792 -0.83002,-0.7475 -1.21162,-1.16381 -0.33729,-0.3683 -0.67719,-0.863 -1.10589,-1.14099 -0.0377,-0.0372 -0.0751,-0.0747 -0.11391,-0.11102 -0.1228,-0.11469 -0.3212,0.045 -0.22789,0.18852 0.0511,0.0787 0.1052,0.15498 0.15839,0.23188 0.0846,0.1487 0.19142,0.29122 0.30812,0.42722 0.21117,0.27961 0.43148,0.55248 0.65648,0.82299 0.37331,0.44881 0.65462,0.98489 1.07509,1.39231 0.40432,0.39158 0.90703,0.70058 1.37563,1.00828 0.34378,0.22581 0.73458,0.39881 1.08158,0.62551 -0.12549,0.10819 -0.24801,0.2196 -0.36421,0.33739 -0.48338,0.4904 -0.77019,1.14022 -1.11439,1.7277 -0.40608,0.69271 -0.8116,1.38303 -1.1847,2.09423 -0.93299,-0.67571 -1.28898,-1.33262 -1.95019,-2.23781 -0.384,-0.52589 -0.81259,-1.02549 -1.15641,-1.579 -0.0591,-0.0951 -0.18679,-0.077 -0.2474,-0.007 -0.0558,0.002 -0.1077,0.0449 -0.0859,0.1137 0.48211,1.5246 1.10681,2.9864 2.42051,3.96268 0.16359,0.1215 0.48528,0.2619 0.716,0.4337 -1.18082,3.23589 -1.13781,3.92469 -1.3534,7.16499 -0.0805,-0.0877 -0.1574,-0.17339 -0.22189,-0.25739 -0.42023,-0.548 -0.83623,-1.08888 -1.2198,-1.6632 -0.34643,-0.51858 -0.77241,-0.94008 -1.26062,-1.32659 -0.43321,-0.343 -0.93719,-0.60699 -1.36909,-0.9496 -0.007,-0.0293 -0.0231,-0.0573 -0.0518,-0.081 -0.25093,-0.20641 -0.52621,-0.3815 -0.80511,-0.5521 0.0826,-0.2866 0.14439,-0.59009 0.2141,-0.86752 0.0808,-0.3224 0.13638,-0.64389 0.0987,-0.9779 -0.0466,-0.41518 -0.19742,-0.83597 -0.30533,-1.23899 -0.11258,-0.4204 -0.20239,-0.84479 -0.3852,-1.24139 -0.0211,-0.046 -0.0637,-0.0574 -0.10308,-0.0475 -0.072,-0.0195 -0.1608,0.0118 -0.17572,0.10682 -0.047,0.2999 0.0584,0.56011 0.11532,0.8521 0.0703,0.3603 0.12919,0.73978 0.17039,1.1043 0.0696,0.61659 0.0528,1.38071 -0.0705,2.0398 -0.15772,-0.0984 -0.31341,-0.19971 -0.46291,-0.309 -0.67539,-0.49371 -1.3268,-1.05399 -1.87441,-1.68899 -0.19689,-0.22832 -0.38439,-0.4657 -0.56791,-0.70662 0.094,-0.8527 0.28533,-1.6952 0.56861,-2.50299 0.29852,-0.8509 0.47921,-1.70589 0.8383,-2.53439 0.2715,-0.6265 0.37021,-1.30722 0.61832,-1.9382 0.2594,-0.42672 0.5261,-0.84871 0.79759,-1.26933 0.0851,-0.10957 0.16909,-0.21999 0.2479,-0.33439 0.20059,-0.29119 0.36629,-0.59299 0.61969,-0.84431 0.1445,-0.1433 -0.0631,-0.330371 -0.21798,-0.249091 -0.31433,0.164811 -0.47032,0.454091 -0.658,0.742801 -0.18842,0.28981 -0.40502,0.56022 -0.60431,0.84261 -0.0495,-0.3163 -0.0805,-0.6326 -0.13571,-0.9502 -0.0923,-0.532201 -0.2721,-1.040801 -0.20119,-1.589201 0.1155,-0.893621 0.74559,-1.6533906 0.69881,-2.5758006 -0.007,-0.13741 -0.17402,-0.16471 -0.23022,-0.0416 -0.38661,0.8466 -0.92159,1.8949896 -0.9198,2.8431806 0.001,0.82261 0.2389,1.835611 0.601,2.595111 -0.005,0.008 -0.0105,0.0154 -0.0154,0.0233 -0.10301,0.16768 -0.18669,0.34248 -0.25922,0.52159 -0.8744,1.36789 -1.625,2.86681 -1.92561,4.46831 -0.12827,0.68319 -0.27139,1.3884 -0.33566,2.0869 -0.60812,-0.881 -1.15204,-1.81289 -1.67672,-2.73562 0.2335,-0.3967 0.40192,-0.8194 0.58219,-1.2513 0.59531,-1.42568 0.85023,-1.90468 0.8461,-3.4658 -0.001,-0.41179 -0.0158,-0.78968 -0.10879,-1.16158 -0.0713,-0.22409 -0.16489,-0.435011 -0.26578,-0.660791 -0.0246,0.006 -0.0481,0.0169 -0.0671,0.0343 -0.0249,0.004 -0.0489,0.0154 -0.0689,0.0321 0.0741,0.591611 0.0104,1.220691 -0.11451,1.839101 -0.21781,1.65919 -0.71639,2.40161 -1.1962,3.88719 -0.0743,0.0853 -0.1482,0.1699 -0.2225,0.2516 -0.57721,-1.4044 -0.63309,-0.97158 -0.24641,0.1493 -0.15318,-0.0491 -0.3193,-0.0747 -0.46969,-0.11158 -0.54959,-0.13512 -1.123595,-0.35021 -1.599705,-0.6592 -0.2752,-0.17879 -0.5219,-0.39882 -0.75981,-0.63222 -0.0741,-0.0507 -0.1457,-0.11081 -0.2158,-0.19089 -0.0648,-0.0739 -0.12498,-0.1453 -0.18397,-0.21459 -0.19653,-0.20182 -0.3944,-0.40231 -0.60533,-0.58512 -0.0161,-0.0113 -0.0309,-0.023 -0.0477,-0.0342 -0.179,-0.11871 -0.34569,-0.2371 -0.50419,-0.37059 -0.0307,-0.0187 -0.0611,-0.0375 -0.0927,-0.0549 -0.0779,-0.0426 -0.2238,0.005 -0.18888,0.118 0.10777,0.3507 0.3894,0.58452 0.66908,0.8103 0.57912,0.71702 1.25659,1.38391 1.94342,1.96931 0.3048,0.26 0.63277,0.40859 1.021675,0.50511 0.40389,0.10029 0.90452,0.24931 1.3208,0.2268 0.007,-3.5e-4 0.0125,-0.003 0.0189,-0.004 0.36371,0.81873 0.82049,1.5954 1.2446,2.4016 0.56179,1.06783 1.3172,1.99112 2.19389,2.7994 -0.005,-0.002 -0.0101,-0.003 -0.0151,-0.005 -1.11658,-0.34748 -2.24279,-0.68732 -3.38388,-0.94541 -0.5733,-0.12968 -1.10861,-0.22757 -1.646415,-0.22327 -0.28278,-0.37832 -0.63941,-0.7155 -0.9489,-1.05992 -0.3659,-0.40668 -0.71628,-0.8273 -1.08578,-1.2306 -0.38481,-0.4197 -0.78722,-0.82391 -1.2077,-1.2077 -0.40752,-0.372 -0.86342,-0.8497 -1.38902,-1.039 -0.083,-0.0299 -0.182,0.0573 -0.12009,0.1409 0.0404,0.0544 0.0844,0.10651 0.13021,0.15709 0.001,0.002 0.001,0.004 0.003,0.006 0.62029,0.83729 1.42572,1.55127 2.1263,2.32248 0.3297,0.36301 0.64191,0.7342 0.93211,1.12953 0.21508,0.29287 0.40781,0.61097 0.62829,0.90357 -0.0978,0.0257 -0.1961,0.0547 -0.29569,0.0896 -1.01721,0.35771 -2.11219,0.6684 -3.04331,1.21962 -0.0731,0.0433 -0.0296,0.13589 0.0373,0.15377 0.0166,0.0419 0.0548,0.0726 0.11532,0.0628 1.49729,-0.2407 2.97268,-0.99539 4.518305,-0.69028 0.32148,0.0635 0.64099,0.1536 0.95849,0.26021 -0.93271,0.52801 -1.720915,1.35411 -2.421705,2.12701 -0.4191,0.46228 -0.78941,0.86977 -1.08299,1.4242 -0.14499,0.27368 -0.30572,0.54617 -0.41621,0.83629 -0.0682,0.17928 -0.10499,0.3664 -0.15812,0.54769 -0.0587,0.10901 -0.10738,0.22189 -0.13917,0.3405 -0.0101,0.0175 -0.0189,0.0354 -0.03,0.0526 -0.0712,0.10989 0.0739,0.20031 0.1645,0.13659 0.0121,-0.005 0.0239,-0.013 0.0353,-0.0245 0.47569,-0.48401 0.74101,-1.15689 1.03431,-1.7581 0.53068,-1.08729 2.441885,-2.19339 3.540795,-2.70439 0.2389,-0.11113 0.56469,-0.24762 0.77879,-0.4566 1.53882,0.68989 4.64481,1.76858 5.72731,2.57789 0.43889,0.32818 0.83259,0.71818 1.1925,1.13389 -0.12062,-0.0184 -0.2412,-0.0385 -0.36171,-0.0628 -0.55619,-0.11211 -1.14561,-0.248 -1.7152,-0.1846 -1.01999,0.11341 -1.9515,0.5892 -2.82131,1.10772 -0.1555,0.0927 -0.0183,0.31139 0.13991,0.23788 0.0317,-0.0148 0.0639,-0.0302 0.0958,-0.0453 0.41413,0.0602 0.82201,-0.153 1.20753,-0.2915 0.7469,-0.26819 1.37661,-0.15442 2.13769,-0.0259 0.59069,0.0997 1.35241,0.0841 1.89491,0.3441 0.0556,0.0267 0.10728,0.0584 0.15737,0.0923 0.084,0.0946 0.16673,0.19931 0.25012,0.31739 0.52691,0.74662 0.9005,1.58493 1.33079,2.38732 0.42961,0.8008 0.9496,1.5349 1.18512,2.42591 0.23019,0.87108 0.22489,1.7701 0.2177,2.6645 -0.008,1.03557 -0.0263,2.07108 -0.0412,3.10659 -0.0145,1.00249 -0.006,2.00491 -0.0698,3.00588 -0.0593,0.93031 -0.0141,1.86242 -0.0652,2.79012 0.3048,-0.0435 0.6096,-0.0876 0.91472,-0.12989 0.003,-0.028 0.005,-0.0562 0.01,-0.0842 10e-4,0.0275 0.002,0.055 0.004,0.0825 0.44499,-0.0614 0.89058,-0.11829 1.33808,-0.15988 0.48391,-0.045 1.05519,-0.107 1.62091,-0.10291 -0.0174,-0.10699 -0.03,-0.21459 -0.0372,-0.32279 0.0187,0.10901 0.0423,0.21661 0.0702,0.323 0.15152,0.002 0.3024,0.009 0.45099,0.0219 -0.0507,-0.33383 -0.0615,-0.68332 -0.10287,-1.0124 -0.0701,-0.55732 -0.1108,-1.1176 -0.18253,-1.6746 -0.13229,-1.02722 -0.27929,-2.05701 -0.55629,-3.05601 -0.2879,-1.0378 -0.56758,-2.07532 -0.82659,-3.12092 -0.12019,-0.48539 -0.26272,-0.96678 -0.36199,-1.45718 -0.14132,-0.69811 -0.0305,-1.27691 0.16729,-1.94822 0.156,-0.52937 0.35891,-1.04679 0.55749,-1.56139 0.19093,-0.49421 0.29281,-1.07259 0.782,-1.3528 0.84219,-0.48228 1.71069,-0.92879 2.55722,-1.4092 0.92209,-0.52349 1.7858,-1.1394 2.72838,-1.62948 0.69311,-0.36033 2.08051,-1.03632 2.86661,-1.08543 0.4307,0.26462 0.89259,0.48962 1.32418,0.73413 0.95102,0.53869 2.9095,1.67679 3.9358,1.79659 0.68612,0.0801 1.35862,-0.0432 2.02982,-0.17512 0.21261,-0.0419 0.1518,-0.35249 -0.0603,-0.32847 -0.0438,0.005 -0.0869,0.009 -0.13043,0.0137 -0.008,-0.0168 -0.0192,-0.0323 -0.0364,-0.0441 -0.18291,-0.12601 -0.3061,-0.13451 -0.52592,-0.16792 -0.35538,-0.054 -0.70379,-0.15219 -1.05307,-0.23679 -1.47691,-0.35778 -2.49061,-0.72901 -3.83963,-1.43291 -0.53538,-0.2794 -1.1611,-0.59157 -1.58387,-1.04577 1.1091,-0.5672 2.19286,-1.28863 3.40547,-1.61491 0.63521,-0.1711 1.40832,0.0128 2.05221,0.11588 0.70722,0.1131 1.3347,0.32403 2.061,0.32131 0.19329,-7.1e-4 0.26529,-0.24239 0.15279,-0.33778 z m -7.58098,-6.36552 c -1.59611,0.0681 0.7669,-0.0323 0,0 z m -0.86011,-5.554811 v 0 c 0.0626,-0.1095 0.12372,-0.21928 0.18119,-0.3303 -0.0371,0.10442 -0.0753,0.20803 -0.11529,0.30963 -0.0299,0.0757 -0.0612,0.150671 -0.0937,0.225281 0.008,-0.0627 0.0166,-0.130101 0.0278,-0.204611 z m -0.23389,0.401111 v 0 c -0.0688,0.20909 -0.1675,0.34622 -0.312,0.55951 -7.9e-4,10e-4 -0.001,0.002 -0.002,0.003 0.0978,-0.19011 0.20489,-0.3768 0.31401,-0.56261 z m -8.02439,7.17201 v 0 c -0.0978,0.1694 -0.19153,0.34131 -0.28201,0.514 0.0838,-0.17752 0.17621,-0.35331 0.28201,-0.514 z m -3.96953,0.47089 c 0.37811,0.50179 0.37522,0.6677 0,0 z m -9.80669,-3.19479 c 1.20039,-2.87789 0.0329,-0.0276 0,0 z m 11.1864,17.22511 v 0 c -0.0192,-0.0645 -0.0414,-0.127 -0.0632,-0.18983 0.0207,0.0424 0.0435,0.0836 0.0667,0.1246 0.0152,0.08 0.0314,0.15942 0.0443,0.24091 -0.0154,-0.0586 -0.0305,-0.1174 -0.0478,-0.17568" />
    <text
       id="text32"
       style="font-variant:normal;font-weight:normal;font-size:12.8655px;font-family:MaiandraGD;-inkscape-font-specification:MaiandraGD-Regular;writing-mode:lr-tb;fill:#000000;fill-opacity:1;fill-rule:nonzero;stroke:none;stroke-width:0.352778"
       x="48.102947"
       y="43.197102"><tspan
         style="fill:#000000;stroke-width:0.352778"
         id="tspan30"
         sodipodi:role="line"
         y="43.197102"
         x="48.102947 55.57777 59.937069 67.656319 75.221199 81.538155 87.996605 94.313545 98.957985 106.18835 113.90763">pro egernos</tspan></text>
    <path
       inkscape:connector-curvature="0"
       id="path34"
       style="fill:#53a30d;fill-opacity:1;fill-rule:nonzero;stroke:none;stroke-width:0.352778"
       d="m 52.451684,24.170186 c -0.0141,-0.0164 -0.0338,-0.0279 -0.0599,-0.0286 -1.10381,-0.0248 -2.21181,-0.0712 -3.27202,0.30678 -0.8184,0.29171 -1.97569,1.04069 -1.98208,2.03069 -0.007,1.1406 1.625,0.7481 2.24649,0.46902 0.58921,-0.26451 1.11019,-0.64939 1.62059,-1.03801 0.574,-0.43709 1.2325,-0.92079 1.58489,-1.56588 0.0534,-0.0977 -0.0395,-0.22002 -0.13797,-0.17402" />
    <path
       inkscape:connector-curvature="0"
       id="path36"
       style="fill:#a3df38;fill-opacity:1;fill-rule:nonzero;stroke:none;stroke-width:0.352778"
       d="m 60.235959,11.540005 c -0.0542,-0.8605 -0.2844,-2.7833106 -1.4811,-2.9056206 -1.06168,-0.10837 -1.09601,1.6824996 -1.00249,2.3337306 0.10718,0.7463 0.2957,1.493701 0.5454,2.204301 0.23029,0.65517 0.78168,1.32009 0.89249,2.00257 0.005,0.031 0.0277,0.047 0.0528,0.0506 -0.004,0.01 -0.008,0.0196 -0.0127,0.0293 -0.0271,0.0599 0.064,0.11861 0.1082,0.0705 0.89249,-0.9707 0.97539,-2.54331 0.89739,-3.785411" />
    <path
       inkscape:connector-curvature="0"
       id="path38"
       style="fill:#53a30d;fill-opacity:1;fill-rule:nonzero;stroke:none;stroke-width:0.352778"
       d="m 63.886469,5.8066974 c -0.89439,-0.33359 -1.50279,0.7396 -1.70582,1.433297 -0.15998,0.54631 -0.19438,1.1091 -0.21519,1.67499 -0.0264,0.72083 -0.0545,1.4913296 0.12192,2.1943106 0.009,0.0344 0.0373,0.0597 0.0695,0.0716 -0.006,0.005 -0.0108,0.0105 -0.0163,0.0154 -0.0633,0.0561 0.0106,0.16122 0.0793,0.10743 1.02383,-0.801521 1.8772,-1.8420306 2.27852,-3.0967206 0.23749,-0.74331 0.30649,-2.057687 -0.6119,-2.400297" />
    <path
       inkscape:connector-curvature="0"
       id="path40"
       style="fill:#70cc0f;fill-opacity:1;fill-rule:nonzero;stroke:none;stroke-width:0.352778"
       d="m 67.189569,17.159116 c -0.53732,-0.609 -1.54291,-1.4079 -2.42302,-1.05322 -0.89038,0.35899 0.23322,1.4405 0.55753,1.79921 0.39398,0.43578 0.83799,0.83601 1.33798,1.14698 0.2026,0.12612 0.4191,0.24681 0.6405,0.33793 0.27281,0.11239 0.59112,0.14047 0.8164,0.34329 0.0394,0.0354 0.0833,0.0293 0.11642,0.004 0.039,-0.009 0.0749,-0.039 0.0835,-0.0871 0.1464,-0.81651 -0.61408,-1.90747 -1.12928,-2.49107" />
    <path
       inkscape:connector-curvature="0"
       id="path42"
       style="fill:#70cc0f;fill-opacity:1;fill-rule:nonzero;stroke:none;stroke-width:0.352778"
       d="m 66.630059,21.476206 c -0.25199,-0.0527 -0.57189,0.11871 -0.75381,0.29968 -0.60908,0.60533 -1.00479,1.3964 -1.18008,2.23291 0.052,0.041 1.54298,-0.69251 2.02001,-1.33019 0.17878,-0.23939 0.3351,-0.6429 0.21177,-0.93729 -0.0668,-0.15932 -0.1741,-0.23922 -0.29789,-0.26511" />
    <path
       inkscape:connector-curvature="0"
       id="path44"
       style="fill:#53a30d;fill-opacity:1;fill-rule:nonzero;stroke:none;stroke-width:0.352778"
       d="m 63.837969,18.654406 c -0.1245,-0.55111 -0.52871,-1.4726 -1.2584,-1.07379 -0.73381,0.4009 -0.59072,1.54019 -0.44012,2.20447 0.1791,0.79132 0.63182,1.73281 1.38472,2.1275 0.0572,0.0301 0.12189,-0.0122 0.12869,-0.0674 0.0122,-0.0104 0.0228,-0.0235 0.0283,-0.0431 0.28942,-1.02951 0.3942,-2.09659 0.15682,-3.14769" />
    <path
       inkscape:connector-curvature="0"
       id="path46"
       style="fill:#53a30d;fill-opacity:1;fill-rule:nonzero;stroke:none;stroke-width:0.352778"
       d="m 70.173469,13.361996 c -0.38711,-0.74768 -0.78119,-1.492391 -1.33901,-2.130391 -0.6309,-0.721711 -2.369,-2.1018206 -3.36299,-1.230601 -1.13841,0.997801 0.1204,2.877892 0.8491,3.677502 1.15309,1.26538 2.8074,2.0677 4.4898,2.35211 0.0607,0.0102 0.11317,-0.0335 0.13268,-0.0863 0.0143,-0.0176 0.0254,-0.0386 0.0275,-0.066 0.0658,-0.8684 -0.40961,-1.7677 -0.7971,-2.51629" />
    <path
       inkscape:connector-curvature="0"
       id="path48"
       style="fill:#a3df38;fill-opacity:1;fill-rule:nonzero;stroke:none;stroke-width:0.352778"
       d="m 69.052159,8.0699044 c -0.002,-0.8545 -0.1011,-1.796517 -0.5927,-2.520807 -0.23851,-0.35151 -0.5842,-0.8267 -1.06669,-0.79368 -1.0843,0.0739 -0.59602,1.82707 -0.36301,2.420267 0.27601,0.70263 0.60999,1.31611 1.87371,2.46803 0.10361,-0.55372 0.14951,-1.31491 0.14869,-1.57381" />
    <path
       inkscape:connector-curvature="0"
       id="path50"
       style="fill:#70cc0f;fill-opacity:1;fill-rule:nonzero;stroke:none;stroke-width:0.352778"
       d="m 74.239159,8.0816844 c -0.39631,-0.934187 -1.25881,-2.292977 -2.46821,-2.071367 -1.20678,0.22119 -0.91479,1.859877 -0.58289,2.656587 0.58702,1.4088896 1.62471,2.7953106 3.00002,3.5130016 0.0394,0.1028 0.22549,0.12591 0.28148,0.005 0.5528,-1.191821 0.26529,-2.9347216 -0.2304,-4.1031216" />
    <path
       inkscape:connector-curvature="0"
       id="path52"
       style="fill:#53a30d;fill-opacity:1;fill-rule:nonzero;stroke:none;stroke-width:0.352778"
       d="m 77.487049,13.118186 c -0.64838,-0.62678 -1.5687,0.1529 -1.9413,0.69141 -0.5943,0.85859 -1.16417,2.0737 -1.0358,3.13112 10e-4,0.0114 0.005,0.0215 0.01,0.0304 -0.0234,0.008 -0.0464,0.016 -0.0701,0.0237 -0.109,0.0361 -0.0574,0.20129 0.0528,0.17021 0.5678,-0.16019 1.18357,-0.46722 1.69358,-0.7542 0.51111,-0.28751 0.94792,-0.73572 1.23582,-1.24372 0.3078,-0.54299 0.5776,-1.5439 0.0552,-2.0489" />
    <path
       inkscape:connector-curvature="0"
       id="path54"
       style="fill:#53a30d;fill-opacity:1;fill-rule:nonzero;stroke:none;stroke-width:0.352778"
       d="m 82.014449,7.1234074 c -1.12448,-0.25019 -1.95597,0.922507 -2.24927,1.839697 -0.4584,1.4342896 -0.38873,3.0049906 0.10167,4.4221016 0.0166,0.0482 0.0484,0.0769 0.0845,0.0902 0.0123,0.0555 0.0843,0.097 0.1379,0.0447 1.05738,-1.033 2.33888,-1.863401 2.81418,-3.347722 0.31369,-0.9798696 0.41719,-2.7581896 -0.889,-3.0489766" />
    <path
       inkscape:connector-curvature="0"
       id="path56"
       style="fill:#a3df38;fill-opacity:1;fill-rule:nonzero;stroke:none;stroke-width:0.352778"
       d="m 77.122059,11.431805 c -0.0207,-0.11592 0.7898,-1.170411 0.94001,-1.4367906 0.3042,-0.53961 0.5552,-1.114 0.6822,-1.72251 0.0861,-0.41261 0.0902,-2.150917 -0.7863,-1.650117 -0.15829,0.0903 -0.26402,0.24913 -0.35461,0.40721 -0.38841,0.678707 -0.5877,1.439017 -0.6125,2.218687 -0.017,0.53732 0.0975,1.9949306 0.1312,2.1835206" />
    <path
       inkscape:connector-curvature="0"
       id="path58"
       style="fill:#70cc0f;fill-opacity:1;fill-rule:nonzero;stroke:none;stroke-width:0.352778"
       d="m 88.369079,12.514406 c -0.64051,-0.731901 -1.87534,0.16708 -2.3634,0.65758 -0.74592,0.74983 -1.40963,1.84542 -1.54972,2.91402 -0.004,2.9e-4 -0.007,7.1e-4 -0.0104,10e-4 -0.18778,0.0163 -0.17918,0.33658 0.012,0.33499 0.66093,-0.005 1.26421,-0.31841 1.85691,-0.5788 0.62252,-0.27329 1.239,-0.5993 1.70329,-1.10959 0.47113,-0.5177 0.89612,-1.59671 0.35133,-2.2194" />
    <path
       inkscape:connector-curvature="0"
       id="path60"
       style="fill:#70cc0f;fill-opacity:1;fill-rule:nonzero;stroke:none;stroke-width:0.352778"
       d="m 82.185759,21.851096 c -0.16788,-0.67909 -1.17591,-0.71748 -1.71302,-0.65948 -0.93948,0.10118 -1.83338,0.45649 -2.59337,1.016 -0.15342,0.0557 -0.20662,0.28928 -0.0103,0.34488 0.9561,0.2704 1.97281,0.57439 2.98048,0.4306 0.50652,-0.0723 1.5059,-0.44539 1.33622,-1.132" />
    <path
       inkscape:connector-curvature="0"
       id="path62"
       style="fill:#53a30d;fill-opacity:1;fill-rule:nonzero;stroke:none;stroke-width:0.352778"
       d="m 77.133459,24.136816 c -0.30251,-0.62583 -1.37231,-0.47763 -1.91971,-0.40273 -0.5889,0.0806 -1.1689,0.2238 -1.72788,0.42481 -0.4657,0.16761 -0.9525,0.3331 -1.25772,0.7396 -0.0198,10e-4 -0.0394,2.1e-4 -0.0592,0.002 -0.16478,0.0126 -0.16168,0.23672 -2.6e-4,0.2539 1.273,0.13451 2.52109,0.46199 3.80199,0.17233 0.52278,-0.11832 1.51398,-0.46302 1.16279,-1.1896" />
    <path
       inkscape:connector-curvature="0"
       id="path64"
       style="fill:#53a30d;fill-opacity:1;fill-rule:nonzero;stroke:none;stroke-width:0.352778"
       d="m 86.033049,17.462616 c -0.71797,-0.1494 -1.4757,0.74898 -1.75429,1.296 -0.40482,0.79459 -0.488,1.67929 -0.41572,2.55587 0.006,0.0729 0.077,0.0923 0.13244,0.0705 0.0275,0.0251 0.064,0.0403 0.1034,0.0331 0.89009,-0.16231 3.49017,-3.63181 1.93417,-3.95548" />
    <path
       inkscape:connector-curvature="0"
       id="path66"
       style="fill:#a3df38;fill-opacity:1;fill-rule:nonzero;stroke:none;stroke-width:0.352778"
       d="m 90.375739,20.391196 c 0.15801,-0.0647 0.31521,-0.13998 0.46923,-0.22539 0.45548,-0.28229 1.08561,-0.76041 0.93709,-1.37421 -0.0553,-0.22839 -0.179,-0.35881 -0.338,-0.42531 -0.698,-0.1053 -1.4473,0.3991 -2.10859,0.86893 -0.72323,0.514 -1.50622,1.07978 -2.1597,1.76558 1.06059,0.0659 2.2038,-0.2009 3.19997,-0.6096" />
    <path
       inkscape:connector-curvature="0"
       id="path68"
       style="fill:#70cc0f;fill-opacity:1;fill-rule:nonzero;stroke:none;stroke-width:0.352778"
       d="m 92.348969,24.495306 c -0.33302,-0.92981 -1.71439,-1.26319 -2.5673,-1.3468 -1.1194,-0.10982 -2.26522,0.10908 -3.25441,0.64488 -0.0321,0.0174 -0.0484,0.042 -0.0534,0.0678 -0.13088,0.0415 -0.21837,0.20302 -0.0828,0.30561 0.47283,0.35772 1.01642,0.5491 1.57501,0.7318 0.70411,0.23019 1.40109,0.4589 2.14238,0.53302 0.5933,0.0593 2.65473,0.21918 2.24053,-0.93631" />
    <path
       inkscape:connector-curvature="0"
       id="path70"
       style="fill:#53a30d;fill-opacity:1;fill-rule:nonzero;stroke:none;stroke-width:0.352778"
       d="m 89.869259,27.336506 c -1.4865,-0.35722 -3.2894,0.0365 -4.65949,0.6465 -0.0223,0.01 -0.0377,0.0268 -0.0476,0.046 -0.007,-0.002 -0.0134,-0.005 -0.0207,-0.007 -0.28822,-0.0661 -0.3592,0.37113 -0.0812,0.44673 0.33091,0.0901 0.58321,0.4216 0.8726,0.59407 0.27908,0.16623 0.5987,0.27821 0.90621,0.37751 0.72348,0.23372 1.46879,0.38171 2.22998,0.40051 0.76931,0.019 2.185,-0.0381 2.57062,-0.8799 0.4716,-1.0293 -1.0711,-1.4569 -1.77041,-1.62489" />
    <path
       inkscape:connector-curvature="0"
       id="path72"
       style="fill:#70cc0f;fill-opacity:1;fill-rule:nonzero;stroke:none;stroke-width:0.352778"
       d="m 85.872679,33.505006 c 0.12058,-0.25499 0.1784,-0.5673 0.16319,-0.77742 -0.0376,-0.51967 -0.20041,-1.05149 -0.40312,-1.52809 -0.3738,-0.87909 -0.92727,-1.68278 -1.59889,-2.36089 -0.21209,-0.21389 -0.18609,0.4156 -0.1965,0.54049 -0.0241,0.28942 -0.0414,0.5794 -0.045,0.86991 -0.007,0.5655 0.0375,1.13341 0.17311,1.68371 0.17099,0.6943 0.51682,1.41717 1.0311,1.84799 0.40181,0.33651 0.7034,0.089 0.87612,-0.2757" />
    <path
       inkscape:connector-curvature="0"
       id="path74"
       style="fill:#a3df38;fill-opacity:1;fill-rule:nonzero;stroke:none;stroke-width:0.352778"
       d="m 82.885569,28.489386 c 0.009,-0.21879 10e-4,-0.37867 -0.0403,-0.37387 -0.22229,0.0259 -0.53319,0.38957 -0.70337,0.53728 -0.25153,0.2184 -0.49371,0.4481 -0.71212,0.69991 -0.64011,0.7384 -1.2888,1.9872 -0.36699,2.7807 1.19821,1.03138 1.6207,-1.82312 1.71298,-2.4704 0.008,-0.0567 0.0921,-0.73402 0.10982,-1.17362" />
    <path
       inkscape:connector-curvature="0"
       id="path76"
       style="fill:#53a30d;fill-opacity:1;fill-rule:nonzero;stroke:none;stroke-width:0.352778"
       d="m 55.911974,17.988816 c -8e-4,-0.012 -10e-4,-0.0241 -0.006,-0.0368 -0.2534,-0.64939 -0.4142,-1.2821 -0.78472,-1.8881 -0.38598,-0.63109 -0.82578,-1.24139 -1.33297,-1.78149 -0.7251,-0.77231 -1.98621,-1.18721 -2.48331,0.0842 -0.46362,1.1859 0.72881,2.40291 1.57681,3.0497 0.51689,0.39419 1.07629,0.74122 1.71517,0.89221 0.37571,0.0888 1.05823,0.25689 1.35481,-0.078 0.0692,-0.0782 0.0367,-0.19459 -0.0397,-0.24169" />
    <path
       inkscape:connector-curvature="0"
       id="path78"
       style="fill:#70cc0f;fill-opacity:1;fill-rule:nonzero;stroke:none;stroke-width:0.352778"
       d="m 55.749874,9.7090844 c -0.14912,-0.5896 -0.71202,-1.54298 -1.46502,-1.41679 -0.11539,0.0193 -0.22458,0.0675 -0.3229,0.1301 -0.277,0.17632 -0.5269,0.5116 -0.56158,0.84212 -0.0449,0.427 0.12929,0.9251996 0.28469,1.3147006 0.4131,1.03568 1.02711,1.962081 1.8675,2.699591 0.2915,0.25598 0.62131,0.44221 0.945015,0.63878 -0.12753,-0.0774 -0.15191,-1.850991 -0.747705,-4.2085016" />
    <path
       inkscape:connector-curvature="0"
       id="path80"
       style="fill:#a3df38;fill-opacity:1;fill-rule:nonzero;stroke:none;stroke-width:0.352778"
       d="m 57.402169,21.127586 c -0.0103,-0.0731 -0.0208,-0.14407 -0.0303,-0.2117 -0.0751,-0.53047 -0.40051,-1.84877 -1.213695,-1.5627 -0.5027,0.17702 -0.47321,0.78003 -0.29361,1.18681 0.29319,0.66432 0.790395,1.2427 1.452595,1.55201 0.0409,0.019 0.0779,0.0379 0.12131,0.0429 0.0536,-0.30402 0.0101,-0.6775 -0.0363,-1.00732" />
    <path
       inkscape:connector-curvature="0"
       id="path82"
       style="fill:#a3df38;fill-opacity:1;fill-rule:nonzero;stroke:none;stroke-width:0.352778"
       d="m 54.180074,20.857816 c -0.0515,-0.5449 -0.3926,-1.10952 -0.63739,-1.58722 -0.23612,-0.46101 -0.51181,-0.9211 -0.91423,-1.25779 -0.67599,-0.56589 -1.98987,-0.9603 -2.69197,-0.23029 -0.75061,0.78059 0.0633,1.64299 0.72337,2.12838 0.44771,0.32921 0.95543,0.5588 1.46,0.78549 0.31641,0.14231 0.6337,0.30392 0.96771,0.40132 0.27929,0.0816 0.5739,0.0942 0.8474,0.19431 0.27549,0.10068 0.42891,-0.26871 0.24511,-0.4342" />
    <path
       inkscape:connector-curvature="0"
       id="path84"
       style="fill:#70cc0f;fill-opacity:1;fill-rule:nonzero;stroke:none;stroke-width:0.352778"
       d="m 50.771154,21.817796 c -0.48758,-0.20948 -1.03438,-0.3586 -1.56238,-0.41409 -0.62971,-0.0662 -1.63731,0.0258 -1.65502,0.85591 -0.014,0.66269 0.84222,0.83827 1.35643,0.89538 0.97419,0.10792 2.14319,-0.21791 3.00168,-0.65969 0.0136,-0.007 0.0253,-0.0149 0.0356,-0.0234 -0.40711,-0.20542 -0.80359,-0.49403 -1.17631,-0.65412" />
    <path
       inkscape:connector-curvature="0"
       id="path86"
       style="fill:#70cc0f;fill-opacity:1;fill-rule:nonzero;stroke:none;stroke-width:0.352778"
       d="m 54.419264,27.595486 c -0.0335,-0.14609 -0.15949,-0.21319 -0.27531,-0.20627 -0.0435,-0.0169 -0.0949,-0.0169 -0.1458,0.012 -1.16868,0.6629 -2.06379,1.78481 -2.57031,3.02228 -0.20746,0.50701 -0.38477,1.09531 -0.20789,1.63591 0.094,0.28751 0.25192,0.64392 0.59002,0.68759 0.6144,0.0794 1.3141,-0.70368 1.61809,-1.14278 0.3586,-0.51802 0.57489,-1.11291 0.74111,-1.7162 0.20578,-0.74761 0.42708,-1.51931 0.25009,-2.29253" />
    <path
       inkscape:connector-curvature="0"
       id="path88"
       style="fill:#a3df38;fill-opacity:1;fill-rule:nonzero;stroke:none;stroke-width:0.352778"
       d="m 57.500169,29.535696 c 0.0694,-0.0724 0.13099,-0.14771 0.1825,-0.21679 0.5715,-0.76831 1.11629,-1.8845 0.94099,-2.869 -0.0245,-0.13702 -0.80179,0.41409 -0.85799,0.46059 -0.29841,0.24701 -0.59041,0.50391 -0.84522,0.7965 -0.45279,0.51961 -1.114695,1.55572 -0.32388,2.08449 0.3223,0.21552 0.66029,-0.002 0.9036,-0.25579" />
    <path
       inkscape:connector-curvature="0"
       id="path90"
       style="fill:#53a30d;fill-opacity:1;fill-rule:nonzero;stroke:none;stroke-width:0.352778"
       d="m 60.387449,31.314786 c 0.0307,-0.0135 0.061,-0.0275 0.0907,-0.042 0.6526,-0.31849 1.13682,-0.91101 1.68762,-1.36941 0.45808,-0.38139 1.09601,-0.92999 1.7551,-1.14678 0.0227,-0.0369 0.0442,-0.0741 0.0636,-0.11162 0.0487,-0.0944 0.0216,-0.17818 -0.0361,-0.2298 -0.0109,-0.0293 -0.0305,-0.0556 -0.0615,-0.0737 -1.07371,-0.62681 -2.7129,-0.45169 -3.81638,-0.005 -0.85651,0.3464 -2.15234,1.3728 -1.75532,2.45379 0.32628,0.88819 1.33988,0.8474 2.07229,0.52468" />
  </g>
</svg>
